<svg id="visual" viewBox="0 0 900 600" width="900" height="600" xmlns="http://www.w3.org/2000/svg" xmlns:xlink="http://www.w3.org/1999/xlink" version="1.1"><rect x="0" y="0" width="900" height="600" fill="#ffffff"></rect><path d="M0 399L21.5 405.8C43 412.7 86 426.3 128.8 423.2C171.7 420 214.3 400 257.2 395.7C300 391.3 343 402.7 385.8 400.5C428.7 398.3 471.3 382.7 514.2 375C557 367.3 600 367.7 642.8 375.8C685.7 384 728.3 400 771.2 398C814 396 857 376 878.5 366L900 356L900 601L878.5 601C857 601 814 601 771.2 601C728.3 601 685.7 601 642.8 601C600 601 557 601 514.2 601C471.3 601 428.7 601 385.8 601C343 601 300 601 257.2 601C214.3 601 171.7 601 128.8 601C86 601 43 601 21.5 601L0 601Z" fill="#fa7268"></path><path d="M0 418L21.5 420.3C43 422.7 86 427.3 128.8 426.7C171.7 426 214.3 420 257.2 421.5C300 423 343 432 385.8 430.8C428.7 429.7 471.3 418.3 514.2 411.5C557 404.7 600 402.3 642.8 406.7C685.7 411 728.3 422 771.2 428.3C814 434.7 857 436.3 878.5 437.2L900 438L900 601L878.5 601C857 601 814 601 771.2 601C728.3 601 685.7 601 642.8 601C600 601 557 601 514.2 601C471.3 601 428.7 601 385.8 601C343 601 300 601 257.2 601C214.3 601 171.7 601 128.8 601C86 601 43 601 21.5 601L0 601Z" fill="#ef5f67"></path><path d="M0 460L21.5 458.2C43 456.3 86 452.7 128.8 454.2C171.7 455.7 214.3 462.3 257.2 462.8C300 463.3 343 457.7 385.8 459.5C428.7 461.3 471.3 470.7 514.2 477.7C557 484.7 600 489.3 642.8 492.7C685.7 496 728.3 498 771.2 496.3C814 494.7 857 489.3 878.5 486.7L900 484L900 601L878.5 601C857 601 814 601 771.2 601C728.3 601 685.7 601 642.8 601C600 601 557 601 514.2 601C471.3 601 428.7 601 385.8 601C343 601 300 601 257.2 601C214.3 601 171.7 601 128.8 601C86 601 43 601 21.5 601L0 601Z" fill="#e34c67"></path><path d="M0 499L21.5 498.8C43 498.7 86 498.3 128.8 499.8C171.7 501.3 214.3 504.7 257.2 509.5C300 514.3 343 520.7 385.8 525.3C428.7 530 471.3 533 514.2 534.3C557 535.7 600 535.3 642.8 526.7C685.7 518 728.3 501 771.2 492C814 483 857 482 878.5 481.5L900 481L900 601L878.5 601C857 601 814 601 771.2 601C728.3 601 685.7 601 642.8 601C600 601 557 601 514.2 601C471.3 601 428.7 601 385.8 601C343 601 300 601 257.2 601C214.3 601 171.7 601 128.8 601C86 601 43 601 21.5 601L0 601Z" fill="#d53867"></path><path d="M0 536L21.5 539C43 542 86 548 128.8 552.8C171.7 557.7 214.3 561.3 257.2 560.5C300 559.7 343 554.3 385.8 551.2C428.7 548 471.3 547 514.2 543.2C557 539.3 600 532.7 642.8 535.3C685.7 538 728.3 550 771.2 554.2C814 558.3 857 554.7 878.5 552.8L900 551L900 601L878.5 601C857 601 814 601 771.2 601C728.3 601 685.7 601 642.8 601C600 601 557 601 514.2 601C471.3 601 428.7 601 385.8 601C343 601 300 601 257.2 601C214.3 601 171.7 601 128.8 601C86 601 43 601 21.5 601L0 601Z" fill="#c62368"></path></svg>